<svg xmlns="http://www.w3.org/2000/svg" xmlns:xlink="http://www.w3.org/1999/xlink" width="256" height="256" viewBox="0 0 256 256">
  <defs>
    <linearGradient id="linear-gradient" x1="0.5" y1="1" x2="0.5" gradientUnits="objectBoundingBox">
      <stop offset="0" stop-color="#fff" stop-opacity="0"/>
      <stop offset="0.99" stop-color="#e1e5f5" stop-opacity="0.788"/>
      <stop offset="1" stop-color="#c7cce0" stop-opacity="0.8"/>
    </linearGradient>
    <linearGradient id="linear-gradient-2" x1="0.5" y1="1" x2="0.5" gradientUnits="objectBoundingBox">
      <stop offset="0.227" stop-color="#d0dceb"/>
      <stop offset="0.789" stop-color="#ecf1fb"/>
    </linearGradient>
    <linearGradient id="linear-gradient-3" x1="0.498" x2="0.498" y2="1" gradientUnits="objectBoundingBox">
      <stop offset="0" stop-color="#ecf1fb"/>
      <stop offset="0.818" stop-color="#b6c9dd"/>
    </linearGradient>
    <linearGradient id="linear-gradient-4" x1="0.249" y1="1.284" x2="2.627" y2="-2.344" gradientUnits="objectBoundingBox">
      <stop offset="0" stop-color="#e2e4ee"/>
      <stop offset="0.6" stop-color="#f9f9f9" stop-opacity="0.102"/>
      <stop offset="1" stop-color="#fff" stop-opacity="0"/>
    </linearGradient>
    <linearGradient id="linear-gradient-5" x1="0.193" y1="0.792" x2="4.765" y2="-2.309" xlink:href="#linear-gradient-4"/>
    <linearGradient id="linear-gradient-6" x1="0.822" y1="1.243" x2="0.178" y2="-0.243" gradientUnits="objectBoundingBox">
      <stop offset="0" stop-color="#eff1fc"/>
      <stop offset="0.99" stop-color="#c7cce0"/>
      <stop offset="1" stop-color="#c7cce0" stop-opacity="0.8"/>
    </linearGradient>
    <linearGradient id="linear-gradient-7" x1="0.5" x2="0.5" y2="1" gradientUnits="objectBoundingBox">
      <stop offset="0" stop-color="#a7b1c1"/>
      <stop offset="1" stop-color="#d7dde2"/>
    </linearGradient>
    <linearGradient id="linear-gradient-8" y1="1" y2="0" xlink:href="#linear-gradient-7"/>
    <linearGradient id="linear-gradient-9" x1="0.5" x2="0.5" y2="1" gradientUnits="objectBoundingBox">
      <stop offset="0.15" stop-color="#e4ebf8"/>
      <stop offset="1" stop-color="#f2f5fc"/>
    </linearGradient>
    <linearGradient id="linear-gradient-10" y1="1" y2="0" xlink:href="#linear-gradient-7"/>
    <linearGradient id="linear-gradient-11" x1="0.5" x2="0.5" y2="1" gradientUnits="objectBoundingBox">
      <stop offset="0.15" stop-color="#dae4f6"/>
      <stop offset="1" stop-color="#fdfdfe"/>
    </linearGradient>
    <linearGradient id="linear-gradient-12" y1="1" y2="0" xlink:href="#linear-gradient-7"/>
    <linearGradient id="linear-gradient-13" x1="0.5" y1="1" x2="0.5" gradientUnits="objectBoundingBox">
      <stop offset="0" stop-color="#fff"/>
      <stop offset="0.99" stop-color="#e1e5f5" stop-opacity="0.788"/>
      <stop offset="1" stop-color="#c7cce0" stop-opacity="0.8"/>
    </linearGradient>
    <linearGradient id="linear-gradient-15" x1="0.5" y1="1" x2="0.5" y2="0" xlink:href="#linear-gradient-13"/>
    <linearGradient id="linear-gradient-16" x1="0.5" x2="0.5" y2="1" gradientUnits="objectBoundingBox">
      <stop offset="0" stop-color="#fff"/>
      <stop offset="0" stop-color="#fafafc" stop-opacity="0.922"/>
      <stop offset="0" stop-color="#e2e4ed" stop-opacity="0.6"/>
      <stop offset="1" stop-color="#c7cce0"/>
    </linearGradient>
    <linearGradient id="linear-gradient-17" x1="1.58" y1="0.759" x2="-0.579" y2="0.201" xlink:href="#linear-gradient-6"/>
    <linearGradient id="linear-gradient-18" x1="1.875" y1="0.794" x2="-0.879" y2="0.247" gradientUnits="objectBoundingBox">
      <stop offset="0.15" stop-color="#9fb6cc"/>
      <stop offset="1" stop-color="#d5e1f2"/>
    </linearGradient>
    <linearGradient id="linear-gradient-19" x1="2.125" y1="1.974" x2="-0.98" y2="0.248" gradientUnits="objectBoundingBox">
      <stop offset="0" stop-color="#fff"/>
      <stop offset="0.99" stop-color="#f0f3ff"/>
      <stop offset="1" stop-color="#c7cce0" stop-opacity="0.8"/>
    </linearGradient>
    <linearGradient id="linear-gradient-20" x1="0.852" y1="0.855" x2="0.148" y2="0.145" xlink:href="#linear-gradient-18"/>
    <linearGradient id="linear-gradient-21" x1="0.854" y1="0.853" x2="0.147" y2="0.146" gradientUnits="objectBoundingBox">
      <stop offset="0.15" stop-color="#dae4f6"/>
      <stop offset="1" stop-color="#fff"/>
    </linearGradient>
  </defs>
  <g id="组_9272" data-name="组 9272" transform="translate(-247 -659)">
    <g id="组_9256" data-name="组 9256">
      <rect id="矩形_1081" data-name="矩形 1081" width="256" height="256" transform="translate(247 659)" fill="none"/>
    </g>
    <g id="组_9271" data-name="组 9271" transform="translate(-10.722 4)">
      <g id="组_5949" data-name="组 5949" transform="translate(258 797.01)">
        <ellipse id="椭圆_5" data-name="椭圆 5" cx="127.722" cy="42.446" rx="127.722" ry="42.446" fill="url(#linear-gradient)"/>
      </g>
      <g id="图层_20" transform="translate(185.095 520.692)">
        <g id="组_9270" data-name="组 9270" transform="translate(87.269 178.877)">
          <g id="组_9263" data-name="组 9263" transform="translate(0 42.669)">
            <g id="组_9261" data-name="组 9261" transform="translate(189.81)">
              <path id="路径_10370" data-name="路径 10370" d="M605.832,367.5s-.052-.137-.122.011c-.646,1.31-6.487,15.524-6.951,26.49,0,0-.976,6.3,7.2,6.22,6.821-.067,6.639-5.878,6.613-7.834C612.475,384.447,605.832,367.5,605.832,367.5Z" transform="translate(-598.722 -367.444)" fill="url(#linear-gradient-2)"/>
              <g id="组_9260" data-name="组 9260" transform="translate(6.687 3.643)">
                <path id="路径_10371" data-name="路径 10371" d="M616.978,413.374a.237.237,0,0,1-.238-.238V377.5a.237.237,0,0,1,.238-.238.239.239,0,0,1,.238.238v35.635A.24.24,0,0,1,616.978,413.374Z" transform="translate(-616.74 -377.26)" fill="url(#linear-gradient-3)"/>
              </g>
            </g>
          </g>
          <path id="路径_10374" data-name="路径 10374" d="M392.981,477.14h59.668l-15.784,35.527-57.546,1.685Z" transform="translate(-270.934 -393.761)" fill="url(#linear-gradient-4)"/>
          <path id="路径_10376" data-name="路径 10376" d="M610.731,469.74H634.5l-12.792,36.128-15.568.512Z" transform="translate(-413.577 -389.107)" fill="url(#linear-gradient-5)"/>
          <g id="组_9266" data-name="组 9266" transform="translate(31.637 0)">
            <g id="组_9264" data-name="组 9264" transform="translate(28.986)">
              <path id="路径_10377" data-name="路径 10377" d="M322.264,288.372H260.707a10.159,10.159,0,0,1-10.087-10.206v-15.49a10.159,10.159,0,0,1,10.087-10.206h61.557a10.159,10.159,0,0,1,10.087,10.206v15.49A10.161,10.161,0,0,1,322.264,288.372Zm-60.136-29.233a3.52,3.52,0,0,0-3.5,3.537v15.49a3.52,3.52,0,0,0,3.5,3.537h60.136a3.52,3.52,0,0,0,3.5-3.537v-15.49a3.52,3.52,0,0,0-3.5-3.537Z" transform="translate(-250.62 -252.47)" fill="#c2c7db"/>
            </g>
            <g id="组_9265" data-name="组 9265" transform="translate(28.986 2.349)">
              <path id="路径_10378" data-name="路径 10378" d="M319.076,292.7H260.258a9.649,9.649,0,0,1-9.638-9.638V268.438a9.649,9.649,0,0,1,9.638-9.638h58.819a9.649,9.649,0,0,1,9.638,9.638v14.626A9.649,9.649,0,0,1,319.076,292.7Zm-58.819-27.6a3.345,3.345,0,0,0-3.34,3.34v14.626a3.345,3.345,0,0,0,3.34,3.34h58.819a3.345,3.345,0,0,0,3.34-3.34V268.438a3.345,3.345,0,0,0-3.34-3.34Z" transform="translate(-250.62 -258.8)" fill="url(#linear-gradient-6)"/>
            </g>
            <path id="路径_10379" data-name="路径 10379" d="M306.454,485.582H193.408a8.687,8.687,0,0,1-8.688-8.688V433.908a8.687,8.687,0,0,1,8.688-8.688H306.454a8.687,8.687,0,0,1,8.688,8.688v42.987A8.69,8.69,0,0,1,306.454,485.582Z" transform="translate(-180.191 -361.109)" fill="url(#linear-gradient-7)"/>
            <path id="路径_10380" data-name="路径 10380" d="M302.42,485.582H193.408a8.687,8.687,0,0,1-8.688-8.688V433.908a8.687,8.687,0,0,1,8.688-8.688H302.42a8.687,8.687,0,0,1,8.688,8.688v42.987A8.69,8.69,0,0,1,302.42,485.582Z" transform="translate(-180.191 -361.109)" fill="#e2e4ed"/>
            <path id="路径_10393" data-name="路径 10393" d="M0,0H9.252V60.362H0Z" transform="translate(15.6 64.111)" fill="url(#linear-gradient-8)"/>
            <rect id="矩形_1083" data-name="矩形 1083" width="8.139" height="60.362" transform="translate(14.828 64.111)" fill="url(#linear-gradient-9)"/>
            <path id="路径_10394" data-name="路径 10394" d="M0,0H9.252V60.362H0Z" transform="translate(113.912 64.088)" fill="url(#linear-gradient-10)"/>
            <rect id="矩形_1085" data-name="矩形 1085" width="8.139" height="60.362" transform="translate(113.1 64.111)" fill="url(#linear-gradient-11)"/>
            <path id="路径_10381" data-name="路径 10381" d="M305.025,364.576l-59.3,10.521a5.9,5.9,0,0,1-1.978.015l-65.881-10.573a6.572,6.572,0,0,1-5.348-6.74l.82-41.814a6.479,6.479,0,0,1,6.29-6.535H304.458c3.526,0,6.717,3.793,6.643,7.534l-.82,41.146A6.567,6.567,0,0,1,305.025,364.576Z" transform="translate(-172.516 -288.304)" fill="#c2c7db"/>
            <path id="路径_10382" data-name="路径 10382" d="M301.021,367.349l-57.508,9.616a6.051,6.051,0,0,1-1.919.015l-63.888-9.664a6.1,6.1,0,0,1-5.188-6.157l.794-38.214a6.1,6.1,0,0,1,6.1-5.975h121.4a6.1,6.1,0,0,1,6.1,6.227l-.794,38.262A6.088,6.088,0,0,1,301.021,367.349Z" transform="translate(-172.516 -293.033)" fill="#e2e4ed"/>
            <path id="路径_10383" data-name="路径 10383" d="M231.379,317.452l.839-.482h1.974l-.082,53.441-1.956-.431-1.225-1.095Z" transform="translate(-209.252 -293.033)" fill="url(#linear-gradient-12)"/>
            <path id="路径_10384" data-name="路径 10384" d="M212.47,368.774l8.139,1.232V316.97H212.47Z" transform="translate(-197.642 -293.033)" fill="url(#linear-gradient-13)"/>
            <path id="路径_10385" data-name="路径 10385" d="M493.88,317.749l1.974-.779h1.692l-.167,51.418-1.525.178-.7-.249Z" transform="translate(-374.616 -293.033)" fill="url(#linear-gradient-12)"/>
            <path id="路径_10386" data-name="路径 10386" d="M477.27,369.925l8.139-1.358v-51.6H477.27Z" transform="translate(-364.17 -293.033)" fill="url(#linear-gradient-15)"/>
            <path id="路径_10387" data-name="路径 10387" d="M351.917,460.116h0a5.666,5.666,0,0,1-5.667-5.667V438.387a5.666,5.666,0,0,1,5.667-5.667h0a5.666,5.666,0,0,1,5.667,5.667v16.062A5.666,5.666,0,0,1,351.917,460.116Z" transform="translate(-281.774 -365.826)" fill="url(#linear-gradient-16)"/>
            <path id="路径_10388" data-name="路径 10388" d="M351.307,462.726h0a5.048,5.048,0,0,1-5.047-5.047V441.917a5.048,5.048,0,0,1,5.047-5.047h0a5.048,5.048,0,0,1,5.047,5.047v15.761A5.048,5.048,0,0,1,351.307,462.726Z" transform="translate(-281.781 -368.436)" fill="#fff"/>
            <path id="路径_10389" data-name="路径 10389" d="M596.4,292.956c5.493-2.39,9.345-9.36,9.345-15.78a15.872,15.872,0,0,0-6.892-12.64c-1.562-1.091-3.578.223-3.422,1.3l1.633,13.846a1.124,1.124,0,0,1-1.121,1.128H583.678a1.124,1.124,0,0,1-1.121-1.128v-14.24c0-.924-1.837-1.633-2.765-.98-4.064,2.858-5.942,7.935-5.66,13.375a15.645,15.645,0,0,0,8.885,13.264l-4.453,82.069A11.108,11.108,0,0,0,589.6,384.93h0c6.372,0,12.752-5.192,12.362-11.6Z" transform="translate(-425.068 -259.8)" fill="#c2c7db"/>
            <path id="路径_10390" data-name="路径 10390" d="M590.9,293.472a15.452,15.452,0,0,0,3.166-26.55,1.121,1.121,0,0,0-1.789.9v14.811a1.12,1.12,0,0,1-1.121,1.121H578.406a1.12,1.12,0,0,1-1.121-1.121V267.821a1.119,1.119,0,0,0-1.781-.906,15.442,15.442,0,0,0,2.724,26.349l-4.453,81.375A11.055,11.055,0,0,0,584.811,386.3h0a11.053,11.053,0,0,0,11.033-11.731Z" transform="translate(-422.06 -261.415)" fill="url(#linear-gradient-17)"/>
            <path id="路径_10391" data-name="路径 10391" d="M602.031,359.82h0a3.2,3.2,0,0,1,3.3,2.921l2.423,51.125a3.173,3.173,0,0,1-3.3,3.184h-4.747a3.177,3.177,0,0,1-3.3-3.18l2.323-51.129A3.2,3.2,0,0,1,602.031,359.82Z" transform="translate(-439.09 -319.98)" fill="url(#linear-gradient-18)"/>
            <path id="路径_10392" data-name="路径 10392" d="M601.536,361.93h0a3.01,3.01,0,0,1,3.006,2.88l2.208,50.428a3.009,3.009,0,0,1-3.006,3.143h-4.324a3.008,3.008,0,0,1-3.006-3.136l2.115-50.428A3.011,3.011,0,0,1,601.536,361.93Z" transform="translate(-439.097 -321.307)" fill="url(#linear-gradient-19)"/>
            <ellipse id="椭圆_1458" data-name="椭圆 1458" cx="6.413" cy="6.354" rx="6.413" ry="6.354" transform="translate(156.539 106.203)" fill="url(#linear-gradient-20)"/>
            <circle id="椭圆_1459" data-name="椭圆 1459" cx="5.448" cy="5.448" r="5.448" transform="translate(157.504 107.108)" fill="url(#linear-gradient-21)"/>
          </g>
        </g>
      </g>
    </g>
  </g>
</svg>
